<svg xmlns="http://www.w3.org/2000/svg" width="109.75" height="32.626" fill="none" viewBox="0 0 111 34">
                    <mask id="resolvr-logo-new_svg__a" width="111" height="31" x="0" y="0" fill="#000" maskUnits="userSpaceOnUse"><path fill="#fff" d="M0 0h111v31H0z"></path><path d="M1.077 14q.075 1.074.076 2.302v13.69h2.992v-8.744q0-3.105 1.227-4.87 1.266-1.802 4.027-1.802.843 0 1.61.23l.192-3.03a2.7 2.7 0 0 0-.614-.153 5 5 0 0 0-.613-.038q-1.113 0-2.071.306a6.2 6.2 0 0 0-1.726.767 6.2 6.2 0 0 0-1.342 1.074q-.537.614-.844 1.266h-.076q0-.768-.039-1.496a28 28 0 0 1-.038-1.457H1q0 .882.077 1.956"></path><path fill-rule="evenodd" d="M26.233 29.647q1.918-.843 3.529-2.914l-2.263-1.765q-1.074 1.343-2.416 2.033t-3.298.69a5.5 5.5 0 0 1-2.263-.46 5.9 5.9 0 0 1-1.802-1.227 7.1 7.1 0 0 1-1.266-1.84 6.8 6.8 0 0 1-.537-2.225h14.497v-.959q0-2.225-.614-3.95-.614-1.764-1.764-2.953a7 7 0 0 0-2.685-1.84q-1.572-.652-3.451-.652-1.995 0-3.682.69a8.5 8.5 0 0 0-2.914 1.956q-1.227 1.227-1.918 2.99-.69 1.727-.69 3.797 0 1.956.614 3.682.651 1.726 1.802 2.991a9 9 0 0 0 2.876 2.033q1.687.728 3.797.728 2.53 0 4.448-.805m-.537-13.92q1.42 1.38 1.496 3.68H15.917q.307-2.3 1.841-3.68t4.027-1.381q2.492 0 3.912 1.38" clip-rule="evenodd"></path><path d="M37.112 27.04q-1.035-.652-1.918-1.765l-2.377 1.841q1.342 1.917 2.99 2.646 1.688.69 3.99.69 1.341 0 2.607-.306 1.304-.307 2.301-.96a5.2 5.2 0 0 0 1.649-1.763q.614-1.074.614-2.608 0-1.342-.46-2.263a4.34 4.34 0 0 0-1.266-1.534 6.2 6.2 0 0 0-1.88-.958q-1.073-.384-2.262-.614a19 19 0 0 1-1.726-.383 9.6 9.6 0 0 1-1.457-.537 3.8 3.8 0 0 1-.997-.69 1.53 1.53 0 0 1-.345-.998q0-.614.307-1.073.345-.499.843-.806a4 4 0 0 1 1.112-.46 5.5 5.5 0 0 1 1.266-.153q1.342 0 2.263.613.958.576 1.534 1.534l2.492-1.649q-.92-1.725-2.57-2.492-1.61-.768-3.527-.768-1.266 0-2.455.346a7.5 7.5 0 0 0-2.147.997q-.959.651-1.534 1.649-.576.996-.575 2.3 0 1.381.498 2.263a4.7 4.7 0 0 0 1.38 1.458 8.7 8.7 0 0 0 2.033.882q1.151.345 2.416.613.729.155 1.42.345.69.192 1.226.537.537.307.844.767.345.46.345 1.19 0 .728-.345 1.265-.345.498-.92.843t-1.304.499q-.69.153-1.38.153-1.612 0-2.685-.652M76.709 1h-2.992v28.992h2.992zM87.302 29.992H90.6l7.095-17.947h-3.221l-5.331 14.074h-.077l-5.599-14.074h-3.49zM100.626 14q.076 1.074.076 2.302v13.69h2.992v-8.744q0-3.105 1.227-4.87 1.266-1.802 4.027-1.802.843 0 1.61.23l.192-3.03a2.7 2.7 0 0 0-.614-.153 5 5 0 0 0-.613-.038q-1.113 0-2.071.306a6.2 6.2 0 0 0-1.726.767 6.2 6.2 0 0 0-1.342 1.074q-.537.614-.844 1.266h-.076q0-.768-.039-1.496a28 28 0 0 1-.038-1.457h-2.838q0 .882.077 1.956"></path></mask><path fill="#000000" d="M1.077 14q.075 1.074.076 2.302v13.69h2.992v-8.744q0-3.105 1.227-4.87 1.266-1.802 4.027-1.802.843 0 1.61.23l.192-3.03a2.7 2.7 0 0 0-.614-.153 5 5 0 0 0-.613-.038q-1.113 0-2.071.306a6.2 6.2 0 0 0-1.726.767 6.2 6.2 0 0 0-1.342 1.074q-.537.614-.844 1.266h-.076q0-.768-.039-1.496a28 28 0 0 1-.038-1.457H1q0 .882.077 1.956"></path><path fill="#000000" fill-rule="evenodd" d="M26.233 29.647q1.918-.843 3.529-2.914l-2.263-1.765q-1.074 1.343-2.416 2.033t-3.298.69a5.5 5.5 0 0 1-2.263-.46 5.9 5.9 0 0 1-1.802-1.227 7.1 7.1 0 0 1-1.266-1.84 6.8 6.8 0 0 1-.537-2.225h14.497v-.959q0-2.225-.614-3.95-.614-1.764-1.764-2.953a7 7 0 0 0-2.685-1.84q-1.572-.652-3.451-.652-1.995 0-3.682.69a8.5 8.5 0 0 0-2.914 1.956q-1.227 1.227-1.918 2.99-.69 1.727-.69 3.797 0 1.956.614 3.682.651 1.726 1.802 2.991a9 9 0 0 0 2.876 2.033q1.687.728 3.797.728 2.53 0 4.448-.805m-.537-13.92q1.42 1.38 1.496 3.68H15.917q.307-2.3 1.841-3.68t4.027-1.381q2.492 0 3.912 1.38" clip-rule="evenodd"></path><path fill="#000000" d="M37.112 27.04q-1.035-.652-1.918-1.765l-2.377 1.841q1.342 1.917 2.99 2.646 1.688.69 3.99.69 1.341 0 2.607-.306 1.304-.307 2.301-.96a5.2 5.2 0 0 0 1.649-1.763q.614-1.074.614-2.608 0-1.342-.46-2.263a4.34 4.34 0 0 0-1.266-1.534 6.2 6.2 0 0 0-1.88-.958q-1.073-.384-2.262-.614a19 19 0 0 1-1.726-.383 9.6 9.6 0 0 1-1.457-.537 3.8 3.8 0 0 1-.997-.69 1.53 1.53 0 0 1-.345-.998q0-.614.307-1.073.345-.499.843-.806a4 4 0 0 1 1.112-.46 5.5 5.5 0 0 1 1.266-.153q1.342 0 2.263.613.958.576 1.534 1.534l2.492-1.649q-.92-1.725-2.57-2.492-1.61-.768-3.527-.768-1.266 0-2.455.346a7.5 7.5 0 0 0-2.147.997q-.959.651-1.534 1.649-.576.996-.575 2.3 0 1.381.498 2.263a4.7 4.7 0 0 0 1.38 1.458 8.7 8.7 0 0 0 2.033.882q1.151.345 2.416.613.729.155 1.42.345.69.192 1.226.537.537.307.844.767.345.46.345 1.19 0 .728-.345 1.265-.345.498-.92.843t-1.304.499q-.69.153-1.38.153-1.612 0-2.685-.652M76.709 1h-2.992v28.992h2.992zM87.302 29.992H90.6l7.095-17.947h-3.221l-5.331 14.074h-.077l-5.599-14.074h-3.49zM100.626 14q.076 1.074.076 2.302v13.69h2.992v-8.744q0-3.105 1.227-4.87 1.266-1.802 4.027-1.802.843 0 1.61.23l.192-3.03a2.7 2.7 0 0 0-.614-.153 5 5 0 0 0-.613-.038q-1.113 0-2.071.306a6.2 6.2 0 0 0-1.726.767 6.2 6.2 0 0 0-1.342 1.074q-.537.614-.844 1.266h-.076q0-.768-.039-1.496a28 28 0 0 1-.038-1.457h-2.838q0 .882.077 1.956"></path><path fill="#000000" d="m1.077 14 .2-.014zm.076 15.992h-.2v.2h.2zm2.992 0v.2h.2v-.2zm1.227-13.614-.164-.115zm5.637-1.572-.057.191.24.073.017-.252zm.192-3.03.2.013.009-.148-.139-.052zm-.614-.153.025-.199zm-2.684.268.054.193.007-.002zm-1.726.767.103.172.006-.004zm-1.342 1.074-.146-.137-.005.005zm-.844 1.266v.2h.127l.054-.115zm-.076 0h-.2v.2h.2zm-.039-1.496.2-.01zm-.038-1.457h.2v-.2h-.2zm-2.838 0v-.2H.8v.2zm28.762 14.688.157.122.123-.157-.158-.123zm-3.529 2.914.078.184h.003zm1.266-4.679.123-.157-.156-.122-.123.154zm-2.416 2.033-.092-.178zm-5.56.23-.082.183zm-1.803-1.227-.145.138.003.003zm-1.266-1.84-.184.078.004.008zm-.537-2.225v-.2h-.213l.014.213zm14.497 0v.2h.2v-.2zM29.8 17.03l-.189.066v.001zm-1.764-2.953-.149.135.005.004zm-2.685-1.84-.076.184.004.002zm-7.133.038.076.185zm-2.914 1.956.141.141.002-.002zm-1.918 2.99.186.075v-.001zM13.31 24.7l-.189.067.002.004zm1.802 2.991-.148.135.002.002zm2.876 2.033-.082.182.003.001zm9.204-10.316v.2h.207l-.007-.207zm-1.495-3.682-.14.144zm-9.78 3.682-.198-.027-.03.227h.228zm1.841-3.682.134.149zm17.436 9.55.157-.125-.123-.155-.156.121zm1.918 1.763-.107.17.003.001zm-4.295.077-.123-.158-.15.117.109.156zm2.99 2.646-.08.183.005.002zm6.597.384-.046-.195h-.001zm2.301-.96.11.168zm1.649-1.763-.174-.1zm.153-4.87.18-.09zm-1.265-1.535.121-.159zm-1.88-.958-.067.188.006.002zm-2.262-.614.038-.196h-.004zm-1.726-.383-.055.192h.003zm-1.457-.537-.09.179.005.002zm-.997-.69-.155.126.007.008.007.007zm-.038-2.071-.165-.114-.002.003zm.843-.806-.105-.17zm1.112-.46-.045-.195-.003.001zm3.529.46-.111.167.008.005zm1.534 1.534-.172.103.108.18.174-.116zm2.492-1.649.11.167.152-.1-.085-.16zm-2.57-2.492-.085.18h.002zm-8.13.575-.112-.166zm-1.533 1.649-.173-.1zm-.077 4.563-.174.099.003.005zm1.38 1.458-.112.165.009.005zm4.45 1.495-.042.196zm1.418.345.054-.192zm1.227.537-.108.169.01.005zm.844.767-.167.111.007.01zm0 2.455.165.113.003-.005zm-.92.843-.103-.171zm-1.304.499-.041-.196h-.003zM73.717 1V.8h-.2V1zm2.992 0h.2V.8h-.2zm-2.992 28.992h-.2v.2h.2zm2.992 0v.2h.2v-.2zm13.891 0v.2h.136l.05-.126zm-3.298 0-.185.076.05.124h.135zm10.393-17.947.186.073.108-.273h-.294zm-3.221 0v-.2h-.139l-.048.129zm-5.331 14.074v.2h.138l.05-.13zm-.077 0-.186.074.05.126h.136zm-5.599-14.074.186-.074-.05-.126h-.136zm-3.49 0v-.2h-.297l.112.275zM100.627 14l.199-.015zm.076 15.991h-.2v.2h.2zm2.992 0v.2h.2v-.2zm1.227-13.614-.164-.115zm5.637-1.572-.057.191.241.073.016-.252zm.192-3.03.2.013.009-.148-.139-.052zm-.614-.153.025-.199zm-2.684.268.054.193.007-.002zm-1.726.767.103.172.006-.004zm-1.342 1.074-.146-.137-.005.005zm-.844 1.266v.2h.127l.054-.115zm-.076 0h-.2v.2h.2zm-.039-1.496-.199.01zm-.038-1.457h.2v-.2h-.2zm-2.838 0v-.2h-.2v.2zM1.153 16.302h.2q0-1.235-.077-2.316l-.2.014-.199.015q.076 1.065.076 2.287zm0 13.69h.2v-13.69h-.4v13.69zm2.992 0v-.2H1.153v.4h2.992zm0-8.744h-.2v8.744h.4v-8.744zm1.227-4.87-.164-.114c-.85 1.221-1.263 2.89-1.263 4.985h.4c0-2.048.405-3.626 1.191-4.757zm4.027-1.802v-.2c-1.888 0-3.3.619-4.19 1.887l.163.115.164.115c.796-1.135 2.068-1.717 3.863-1.717zm1.61.23.058-.192a5.8 5.8 0 0 0-1.668-.238v.4q.816 0 1.553.221zm.192-3.03-.2-.012-.191 3.03.2.012.199.013.192-3.03zm-.614-.153-.024.198q.282.035.568.143l.07-.188.07-.187a3 3 0 0 0-.659-.165zm-.613-.038v.2q.294 0 .589.036l.024-.198.025-.199a5 5 0 0 0-.638-.04zm-2.071.306.06.19a6.6 6.6 0 0 1 2.01-.296v-.4q-1.14-.001-2.131.316zm-1.726.767.11.168a6 6 0 0 1 1.67-.742l-.054-.193-.054-.192a6.4 6.4 0 0 0-1.78.792zm-1.342 1.074.146.137q.555-.592 1.3-1.04l-.104-.17-.103-.172a6.4 6.4 0 0 0-1.385 1.108zm-.844 1.266.181.085a5.3 5.3 0 0 1 .813-1.22l-.15-.131-.15-.132a5.7 5.7 0 0 0-.875 1.312zm-.076 0v.2h.076v-.4h-.076zm-.039-1.496-.2.01q.039.723.039 1.486h.4q0-.772-.04-1.507zm-.038-1.457h-.2q0 .734.038 1.467l.2-.01.2-.01a28 28 0 0 1-.038-1.447zm-2.838 0v.2h2.838v-.4H1zM1.077 14l.2-.015Q1.2 12.918 1.2 12.045H.8q0 .89.077 1.97zm28.685 12.732-.158-.123c-1.059 1.36-2.21 2.308-3.451 2.854l.08.183.08.183c1.316-.579 2.517-1.574 3.606-2.975zm-2.263-1.765-.123.158 2.263 1.764.123-.157.122-.158-2.262-1.764zm-2.416 2.033.091.178q1.385-.714 2.481-2.086l-.156-.125-.156-.125q-1.051 1.313-2.352 1.98zm-3.298.69v.2c1.326 0 2.46-.234 3.39-.712L25.082 27l-.092-.178c-.859.442-1.925.668-3.206.668zm-2.263-.46-.081.183q1.078.478 2.344.477v-.4a5.3 5.3 0 0 1-2.182-.443zm-1.802-1.227-.142.141q.795.795 1.863 1.269l.081-.183.081-.183a5.7 5.7 0 0 1-1.742-1.185zm-1.266-1.84-.18.086a7.3 7.3 0 0 0 1.301 1.892l.145-.138.145-.138a7 7 0 0 1-1.23-1.79zm-.537-2.225-.2.013q.08 1.185.553 2.29l.184-.079.184-.079a6.6 6.6 0 0 1-.521-2.158zm14.497 0v-.2H15.917v.4h14.497zm0-.959h-.2v.959h.4v-.959zm-.614-3.95-.189.067q.601 1.686.602 3.883h.4q.002-2.25-.625-4.017zm-1.764-2.953-.144.14q1.117 1.151 1.719 2.879l.189-.066.189-.066q-.626-1.801-1.81-3.026zm-2.685-1.84-.072.186a6.8 6.8 0 0 1 2.609 1.788l.148-.134.148-.134a7.2 7.2 0 0 0-2.76-1.893zm-3.451-.652v.2q1.844 0 3.375.636l.076-.185.077-.184q-1.613-.668-3.528-.668zm-3.682.69.076.185q1.648-.676 3.606-.676v-.4q-2.03 0-3.757.706zm-2.914 1.956.143.139a8.3 8.3 0 0 1 2.847-1.91l-.076-.185-.075-.185a8.7 8.7 0 0 0-2.983 2.001zm-1.918 2.99.187.074q.676-1.728 1.872-2.923l-.141-.141-.142-.142q-1.259 1.26-1.962 3.06zm-.69 3.797h.2q0-2.036.676-3.722l-.186-.074-.185-.074q-.706 1.765-.705 3.87zm.614 3.682.188-.067a10.7 10.7 0 0 1-.602-3.615h-.4q0 1.99.625 3.749zm1.802 2.991.148-.134q-1.124-1.235-1.763-2.928l-.187.071-.187.07q.663 1.76 1.841 3.056zm2.876 2.033.083-.182q-1.654-.753-2.813-1.988l-.146.137-.146.137q1.218 1.296 2.94 2.078zm3.797.728v-.2q-2.073 0-3.718-.712l-.079.184-.08.183q1.732.746 3.877.745zm4.448-.805-.077-.184q-1.874.788-4.371.79v.4q2.563.002 4.526-.822zm.96-10.24.199-.006c-.053-1.576-.567-2.856-1.556-3.818l-.14.143-.139.144c.903.878 1.386 2.053 1.435 3.544zm-11.276 0v.2h11.275v-.4H15.917zm1.841-3.68-.134-.15c-1.062.957-1.695 2.23-1.905 3.804l.198.027.199.026c.199-1.493.793-2.675 1.776-3.56zm4.027-1.381v-.2c-1.7 0-3.094.471-4.16 1.432l.133.148.134.149c.979-.88 2.27-1.33 3.893-1.33zm3.912 1.38.139-.143c-.992-.966-2.351-1.437-4.051-1.437v.4c1.624 0 2.872.448 3.772 1.324zm9.497 9.55-.156.123q.9 1.136 1.967 1.81l.107-.17.106-.169q-1.002-.63-1.867-1.719zm-2.377 1.84.122.158 2.378-1.84-.123-.159-.122-.158-2.378 1.84zm2.99 2.646.082-.183c-1.058-.467-2.029-1.32-2.909-2.578l-.163.115-.164.115c.91 1.3 1.933 2.21 3.074 2.714zm3.99.69v-.2q-2.272-.002-3.913-.675l-.076.185-.076.185c1.154.473 2.51.705 4.064.705zm2.607-.306-.047-.195q-1.242.3-2.56.301v.4q1.365 0 2.654-.312zm2.301-.96-.11-.166q-.963.63-2.237.93l.046.196.046.194q1.334-.313 2.364-.986zm1.649-1.763-.174-.1a5 5 0 0 1-1.586 1.697l.111.167.11.166a5.4 5.4 0 0 0 1.713-1.831zm.614-2.608h-.2c0 .996-.2 1.83-.588 2.509l.174.099.174.099c.43-.752.64-1.658.64-2.707zm-.46-2.263-.18.09c.29.579.44 1.3.44 2.173h.4c0-.917-.157-1.704-.482-2.352zm-1.266-1.534-.121.16q.768.584 1.207 1.464l.18-.09.178-.089a4.54 4.54 0 0 0-1.323-1.604zm-1.88-.958-.06.19a6 6 0 0 1 1.819.927l.12-.159.122-.159a6.4 6.4 0 0 0-1.94-.99zm-2.262-.614-.038.196q1.175.228 2.233.606l.068-.188.067-.189a15.6 15.6 0 0 0-2.292-.621zm-1.726-.383-.052.193q.852.233 1.744.387l.034-.197.034-.197a19 19 0 0 1-1.707-.38zm-1.457-.537-.085.18q.67.315 1.487.549l.055-.192.055-.193a9.5 9.5 0 0 1-1.427-.525zm-.997-.69-.141.14a4 4 0 0 0 1.049.729l.09-.18.089-.178a3.6 3.6 0 0 1-.946-.653zm-.345-.998h-.2c0 .427.13.805.39 1.124l.155-.127.155-.126c-.2-.244-.3-.53-.3-.87zm.307-1.073-.167-.111a2.1 2.1 0 0 0-.34 1.184h.4c0-.374.093-.692.273-.963zm.843-.806-.105-.17a3 3 0 0 0-.903.862l.165.114.164.113q.322-.465.784-.748zm1.112-.46-.048-.194a4.1 4.1 0 0 0-1.169.484l.105.17.105.17a3.7 3.7 0 0 1 1.056-.436zm1.266-.153v-.2q-.639 0-1.311.158l.045.195.046.195a5.3 5.3 0 0 1 1.22-.148zm2.263.613.11-.166c-.652-.435-1.447-.647-2.373-.647v.4c.864 0 1.577.197 2.152.58zm1.534 1.534.171-.103a4.6 4.6 0 0 0-1.602-1.602l-.103.171-.103.172a4.2 4.2 0 0 1 1.465 1.465zm2.492-1.649-.11-.167-2.493 1.65.11.166.111.167 2.493-1.649zm-2.57-2.492-.083.18c1.056.492 1.882 1.291 2.477 2.406l.176-.094.177-.094c-.633-1.186-1.52-2.049-2.662-2.58zm-3.527-.768v.2q1.875 0 3.442.748l.086-.18.086-.181q-1.655-.787-3.614-.787zm-2.455.346.056.192a8.6 8.6 0 0 1 2.399-.338v-.4q-1.294 0-2.51.354zm-2.147.997.112.165a7.3 7.3 0 0 1 2.091-.97l-.056-.192-.055-.192a7.7 7.7 0 0 0-2.205 1.023zm-1.534 1.649.173.1a4.8 4.8 0 0 1 1.473-1.584l-.112-.165-.113-.166a5.2 5.2 0 0 0-1.594 1.715zm-.575 2.3h.2q.001-1.256.548-2.2l-.173-.1-.173-.1c-.404.699-.602 1.501-.602 2.4zm.498 2.263.174-.098c-.31-.55-.472-1.266-.472-2.164h-.4c0 .943.17 1.734.524 2.36zm1.38 1.458.113-.166a4.5 4.5 0 0 1-1.322-1.396l-.17.104-.172.104a4.9 4.9 0 0 0 1.44 1.519zm2.033.882.058-.192a8.5 8.5 0 0 1-1.986-.861l-.104.17-.104.171a9 9 0 0 0 2.079.903zm2.416.613.042-.195a30 30 0 0 1-2.4-.61l-.058.192-.057.191q1.158.348 2.432.618zm1.42.345.053-.192a23 23 0 0 0-1.431-.349l-.042.196-.04.196q.721.151 1.406.342zm1.226.537.108-.168a4.7 4.7 0 0 0-1.281-.561l-.054.192-.053.193q.664.185 1.172.512zm.844.767.166-.11a2.65 2.65 0 0 0-.91-.83l-.1.173-.099.174q.5.286.777.704zm.345 1.19h.2c0-.518-.123-.96-.385-1.31l-.16.12-.16.12c.198.264.305.615.305 1.07zm-.345 1.265.168.108c.254-.395.377-.855.377-1.374h-.4c0 .453-.107.836-.313 1.157zm-.92.843.103.172q.609-.364.981-.901l-.164-.114-.164-.114a2.7 2.7 0 0 1-.86.786zm-1.304.499.041.196q.758-.16 1.366-.523l-.103-.172-.103-.171a4 4 0 0 1-1.242.474zm-1.38.153v.2q.712 0 1.423-.158l-.043-.195-.044-.195q-.67.148-1.337.148zm-2.685-.652-.104.171c.755.459 1.688.681 2.788.681v-.4c-1.047 0-1.904-.212-2.58-.623zM73.718 1v.2h2.99V.8h-2.99zm0 28.992h.2V1h-.4v28.992zm2.99 0v-.2h-2.99v.4h2.99zm0-28.992h-.2v28.992h.4V1zM90.6 29.992v-.2h-3.298v.4H90.6zm7.095-17.947-.186-.074-7.095 17.948.186.073.186.074 7.095-17.948zm-3.221 0v.2h3.221v-.4h-3.221zm-5.331 14.074.187.07 5.33-14.073-.186-.071-.187-.071-5.331 14.074zm-.077 0v.2h.077v-.4h-.077zm-5.599-14.074-.186.074 5.6 14.074.185-.074.186-.074-5.599-14.074zm-3.49 0v.2h3.49v-.4h-3.49zm7.325 17.947.185-.075-7.324-17.948-.185.076-.186.075 7.325 17.948zm13.4-13.69h.2q0-1.235-.077-2.316l-.199.014-.2.015q.076 1.065.076 2.287zm0 13.69h.2v-13.69h-.4v13.69zm2.992 0v-.2h-2.992v.4h2.992zm0-8.744h-.2v8.744h.4v-8.744zm1.227-4.87-.164-.114c-.85 1.221-1.263 2.89-1.263 4.985h.4c0-2.048.405-3.626 1.191-4.757zm4.027-1.802v-.2c-1.888 0-3.3.619-4.191 1.887l.164.115.164.115c.796-1.135 2.068-1.717 3.863-1.717zm1.61.23.058-.192a5.8 5.8 0 0 0-1.668-.238v.4q.816 0 1.553.221zm.192-3.03-.2-.012-.191 3.03.199.012.2.013.192-3.03zm-.614-.153-.024.198q.282.035.568.143l.07-.188.07-.187a3 3 0 0 0-.659-.165zm-.613-.038v.2q.294 0 .589.036l.024-.198.025-.199a5 5 0 0 0-.638-.04zm-2.071.306.061.19a6.6 6.6 0 0 1 2.01-.296v-.4a7 7 0 0 0-2.132.316zm-1.726.767.109.168a6 6 0 0 1 1.671-.742l-.054-.193-.054-.192a6.4 6.4 0 0 0-1.781.792zm-1.342 1.074.146.137q.555-.592 1.299-1.04l-.103-.17-.103-.172a6.4 6.4 0 0 0-1.385 1.108zm-.844 1.266.181.085a5.3 5.3 0 0 1 .813-1.22l-.15-.131-.151-.132q-.552.633-.874 1.312zm-.076 0v.2h.076v-.4h-.076zm-.039-1.496-.199.01q.038.723.038 1.486h.4q0-.772-.039-1.507zm-.038-1.457h-.2q0 .734.039 1.467l.199-.01.2-.01a28 28 0 0 1-.038-1.447zm-2.838 0v.2h2.838v-.4h-2.838zm.077 1.956.199-.015a27 27 0 0 1-.076-1.941h-.4q0 .89.077 1.97z" mask="url(#resolvr-logo-new_svg__a)"></path><mask id="resolvr-logo-new_svg__b" width="27.907" height="27.907" x="45.7" y="7.047" fill="#000" maskUnits="userSpaceOnUse"><path fill="#fff" d="M45.7 7.047h27.907v27.907H45.7z"></path><path fill-rule="evenodd" d="M55.639 12.39a9.5 9.5 0 0 1 12.625 4.596l.005.01-2.493 1.162-.004-.01a6.75 6.75 0 0 0-10.568-2.225l-1.812-2.07a9.5 9.5 0 0 1 2.247-1.463m-2.331 6.31-2.584-.941a9.47 9.47 0 0 0 .32 7.257 9.5 9.5 0 0 0 7.985 5.466l.182-2.744a6.75 6.75 0 0 1-5.675-3.885 6.73 6.73 0 0 1-.228-5.153m9.198 8.419 1.162 2.492a9.5 9.5 0 0 0 2.243-1.458l-1.812-2.07c-.468.41-1.001.76-1.592 1.036zm3.488-3.802 2.585.94c.306-.838.494-1.72.555-2.617l-2.744-.182a6.8 6.8 0 0 1-.396 1.859" clip-rule="evenodd"></path></mask><path fill="#000000" fill-rule="evenodd" d="M55.639 12.39a9.5 9.5 0 0 1 12.625 4.596l.005.01-2.493 1.162-.004-.01a6.75 6.75 0 0 0-10.568-2.225l-1.812-2.07a9.5 9.5 0 0 1 2.247-1.463m-2.331 6.31-2.584-.941a9.47 9.47 0 0 0 .32 7.257 9.5 9.5 0 0 0 7.985 5.466l.182-2.744a6.75 6.75 0 0 1-5.675-3.885 6.73 6.73 0 0 1-.228-5.153m9.198 8.419 1.162 2.492a9.5 9.5 0 0 0 2.243-1.458l-1.812-2.07c-.468.41-1.001.76-1.592 1.036zm3.488-3.802 2.585.94c.306-.838.494-1.72.555-2.617l-2.744-.182a6.8 6.8 0 0 1-.396 1.859" clip-rule="evenodd"></path><path fill="#000000" d="m68.269 16.996.084.18.181-.083-.084-.182zm-2.493 1.162-.181.084.084.182.182-.085zm-10.572-2.235-.15.131.13.15.151-.13zm-1.812-2.07-.132-.15-.15.131.131.15zm-.084 4.847.188.068.068-.188-.188-.068zm-2.584-.941.068-.188-.188-.069-.068.188zm.32 7.257.18-.085zm7.985 5.466-.014.2.2.013.013-.2zm.182-2.744.2.013.013-.2-.2-.013zm3.295-.62-.084-.18-.182.084.085.181zm1.162 2.493-.181.085.084.181.182-.085zm0 0-.084-.181zm2.243-1.458.131.15.15-.131-.13-.15zm-1.812-2.07.15-.131-.132-.15-.15.13zm1.895-2.766-.187-.069-.07.188.189.069zm2.585.94-.069.189.188.068.068-.188zm.555-2.617.2.014.014-.2-.2-.014zm-2.744-.182.013-.2-.199-.013-.014.2zm1.874-4.472.181-.085c-2.264-4.855-8.035-6.956-12.89-4.692l.084.181.084.182a9.3 9.3 0 0 1 12.36 4.498zm.005.01.181-.085-.005-.01-.18.085-.182.084.005.01zm-2.493 1.162.085.181 2.492-1.162-.084-.181-.085-.182-2.492 1.163zm0 0 .182-.084-.005-.01-.181.084-.182.084.005.01zm-.004-.01.18-.085a6.95 6.95 0 0 0-9.235-3.361l.084.18.084.182a6.55 6.55 0 0 1 8.705 3.168zM56.8 14.883l-.084-.181a7 7 0 0 0-1.645 1.07l.132.15.131.151c.456-.398.974-.74 1.55-1.009zm-3.41-1.03-.15.132 1.812 2.07.15-.132.151-.132-1.812-2.07zm2.248-1.463-.085-.181a9.7 9.7 0 0 0-2.294 1.493l.132.15.131.151a9.3 9.3 0 0 1 2.2-1.431zm-2.331 6.31.068-.188-2.584-.941-.068.188-.069.188 2.584.94zm-2.584-.941-.188-.069a9.67 9.67 0 0 0 .326 7.41l.181-.084.182-.085a9.27 9.27 0 0 1-.313-7.104zm.32 7.257-.182.084a9.7 9.7 0 0 0 8.154 5.582l.013-.2.013-.2a9.3 9.3 0 0 1-7.817-5.35zm7.985 5.466.2.014.182-2.745-.2-.013-.2-.014-.182 2.745zm-5.493-6.629-.181.085a6.95 6.95 0 0 0 5.843 4l.013-.2.013-.2a6.55 6.55 0 0 1-5.507-3.77zm-.228-5.153-.188-.069a6.93 6.93 0 0 0 .235 5.307l.181-.085.181-.084a6.53 6.53 0 0 1-.221-5.001zm9.198 8.419-.181.084 1.162 2.493.181-.085.181-.084-1.162-2.493zm1.162 2.492.085.181zl-.085-.181zm0 0 .085.181c.85-.396 1.616-.9 2.29-1.488l-.132-.151-.132-.15a9.3 9.3 0 0 1-2.195 1.427zm2.243-1.458.15-.132-1.812-2.07-.15.132-.15.132 1.811 2.07zm-3.404-1.034.084.18a7 7 0 0 0 1.64-1.065l-.132-.15-.132-.151c-.454.396-.97.736-1.545 1.004zm-.001 0 .084.181h.001zl-.085-.182zm3.488-3.802-.068.188 2.584.94.069-.187.068-.188-2.584-.941zm2.585.94.187.07a9.7 9.7 0 0 0 .568-2.673l-.2-.014-.2-.014a9.3 9.3 0 0 1-.543 2.563zm.555-2.617.014-.2-2.745-.181-.013.2-.013.199 2.744.182zm-3.14 1.677.188.068a7 7 0 0 0 .407-1.913l-.2-.014-.199-.014a6.6 6.6 0 0 1-.383 1.804z" mask="url(#resolvr-logo-new_svg__b)"></path><path fill="#000000" d="M64.024 23.6h-8.66l4.33-6z"></path>
                </svg>