<svg width="110" height="33" viewBox="0 0 110 33" fill="none" xmlns="http://www.w3.org/2000/svg">
<g clip-path="url(#clip0_5_2)">
<path d="M2.65153 13.4341C2.6995 14.1212 2.72381 14.8575 2.72445 15.6431V28.7798H5.59554V20.3892C5.59554 18.4029 5.98801 16.8451 6.77296 15.716C7.58285 14.5632 8.87094 13.9868 10.6372 13.9868C11.1765 13.9868 11.6915 14.0604 12.1822 14.2075L12.3664 11.3C12.1764 11.2281 11.9787 11.1788 11.7772 11.1532C11.5821 11.129 11.3856 11.1168 11.189 11.1167C10.477 11.1167 9.81453 11.2146 9.20167 11.4103C8.61524 11.5696 8.05668 11.8179 7.54543 12.1463C7.0704 12.4284 6.63698 12.7753 6.25766 13.1769C5.91413 13.5697 5.64416 13.9747 5.44777 14.3918H5.37484C5.37484 13.9005 5.36236 13.4219 5.33741 12.9562C5.31313 12.4906 5.30097 12.0244 5.30095 11.5581H2.57764C2.57764 12.1223 2.60227 12.748 2.65153 13.4351" fill="white"/>
<path fill-rule="evenodd" clip-rule="evenodd" d="M26.7907 28.4488C28.0177 27.9095 29.1465 26.9774 30.1771 25.6525L28.0056 23.9589C27.3185 24.818 26.5457 25.4683 25.6872 25.9097C24.8287 26.3511 23.7738 26.5718 22.5225 26.5718C21.7755 26.58 21.0354 26.4296 20.3509 26.1304C19.7064 25.8488 19.12 25.4495 18.6218 24.953C18.1262 24.4322 17.7162 23.8363 17.4069 23.1874C17.1157 22.5099 16.9415 21.788 16.8916 21.0523H30.8028V20.132C30.8028 18.7086 30.6064 17.4452 30.2136 16.3417C29.8208 15.2132 29.2565 14.2686 28.5209 13.508C27.8127 12.7252 26.93 12.1203 25.9444 11.7424C24.9387 11.3253 23.8349 11.1167 22.6328 11.1167C21.3566 11.1167 20.1788 11.3374 19.0996 11.7788C18.0471 12.2031 17.0947 12.8424 16.3034 13.6558C15.5184 14.4407 14.9049 15.3971 14.4629 16.5249C14.0215 17.6297 13.8008 18.8443 13.8008 20.1685C13.8008 21.4198 13.9972 22.5975 14.39 23.7017C14.8064 24.8059 15.3828 25.7626 16.1191 26.5718C16.9016 27.3975 17.8395 28.0605 18.8789 28.5227C19.9581 28.9884 21.1727 29.2213 22.5225 29.2213C24.141 29.2213 25.5637 28.9638 26.7907 28.4488ZM26.2754 15.0913C27.1838 15.9741 27.6624 17.1512 27.711 18.6226H16.8916C17.088 17.1512 17.6769 15.9741 18.6582 15.0913C19.6396 14.2085 20.9276 13.7668 22.5225 13.7661C24.1167 13.7661 25.368 14.2075 26.2764 15.0904" fill="white"/>
<path d="M37.2303 25.9472C36.5682 25.5301 35.9547 24.9655 35.3898 24.2535L33.1089 26.0201C33.9674 27.2464 34.9238 28.0928 35.9781 28.5592C37.0579 29.0006 38.3342 29.2213 39.8068 29.2213C40.6647 29.2213 41.4986 29.1234 42.3085 28.9276C43.1427 28.7312 43.8787 28.4242 44.5165 28.0064C45.1693 27.5744 45.7114 26.9949 46.0988 26.3147C46.4916 25.6276 46.688 24.7934 46.688 23.8121C46.688 22.9536 46.5409 22.2297 46.2466 21.6405C45.9611 21.0624 45.5452 20.5585 45.0318 20.1685C44.4874 19.7613 43.8772 19.4503 43.2277 19.2492C42.5413 19.0036 41.8178 18.8072 41.0572 18.66C40.4997 18.5633 39.947 18.4407 39.4009 18.2925C38.9217 18.1588 38.4541 17.9865 38.0028 17.7772C37.6505 17.6091 37.3275 17.3856 37.0461 17.1151C36.8256 16.8453 36.7082 16.5058 36.715 16.1574C36.715 15.7646 36.8132 15.4214 37.0096 15.1278C37.2303 14.8086 37.5 14.5508 37.8185 14.3544C38.1499 14.1543 38.5097 14.0054 38.8856 13.913C39.2835 13.8171 39.6912 13.7678 40.1004 13.7661C40.959 13.7661 41.6828 13.9622 42.272 14.3544C42.8849 14.7228 43.3755 15.2135 43.744 15.8264L46.1353 14.244C45.5467 13.1405 44.7247 12.3434 43.6692 11.8527C42.6392 11.3614 41.511 11.1158 40.2847 11.1158C39.4748 11.1158 38.6895 11.2264 37.9289 11.4478C37.1958 11.6556 36.5004 11.9785 35.8687 12.4045C35.2552 12.8209 34.7645 13.3484 34.3967 13.9868C34.0282 14.624 33.8442 15.3597 33.8449 16.1939C33.8449 17.0774 34.0042 17.8012 34.3228 18.3654C34.6583 18.9217 35.11 19.399 35.647 19.7645C36.2585 20.1286 36.9141 20.4131 37.5978 20.6109C38.3342 20.8316 39.107 21.0277 39.9162 21.1991C40.3826 21.2983 40.8368 21.4086 41.2788 21.5302C41.7202 21.653 42.1124 21.8248 42.4553 22.0455C42.7988 22.2419 43.0688 22.4872 43.2652 22.7815C43.4859 23.0757 43.5962 23.4564 43.5962 23.9234C43.5962 24.3891 43.4859 24.7937 43.2652 25.1373C43.0445 25.4558 42.7502 25.7255 42.3823 25.9462C42.0145 26.1669 41.5974 26.3265 41.131 26.425C40.6896 26.5229 40.2482 26.5718 39.8068 26.5718C38.7756 26.5718 37.9167 26.3633 37.2303 25.9462M75.2271 0.959473H72.356V28.7799H75.2271V0.959473ZM85.392 28.7799H88.5568L95.365 11.5581H92.2742L87.1586 25.0634H87.0848L81.712 11.5581H78.3631L85.392 28.7799ZM98.1776 13.4341C98.2262 14.1212 98.2505 14.8575 98.2505 15.6431V28.7799H101.122V20.3892C101.122 18.4029 101.514 16.8451 102.299 15.716C103.109 14.5632 104.397 13.9868 106.163 13.9868C106.703 13.9868 107.218 14.0604 107.708 14.2075L107.892 11.3C107.703 11.2281 107.505 11.1789 107.303 11.1532C107.108 11.129 106.912 11.1168 106.715 11.1167C106.003 11.1167 105.341 11.2146 104.728 11.4103C104.141 11.5697 103.583 11.8179 103.071 12.1464C102.596 12.4284 102.163 12.7753 101.784 13.177C101.44 13.5697 101.17 13.9747 100.974 14.3918H100.901C100.901 13.9005 100.888 13.422 100.863 12.9562C100.839 12.4906 100.827 12.0244 100.827 11.5581H98.1037C98.1037 12.1224 98.1283 12.748 98.1776 13.4351" fill="white"/>
<mask id="mask0_5_2" style="mask-type:luminance" maskUnits="userSpaceOnUse" x="1" y="0" width="108" height="30">
<path d="M1.61768 0H108.132V29.7472H1.61768V0Z" fill="white"/>
<path d="M2.65104 13.4341C2.69902 14.1212 2.72333 14.8575 2.72397 15.6431V28.7798H5.59505V20.3892C5.59505 18.4029 5.98753 16.8451 6.77247 15.716C7.58236 14.5632 8.87045 13.9868 10.6367 13.9868C11.176 13.9868 11.691 14.0604 12.1817 14.2075L12.3659 11.3C12.1759 11.2281 11.9782 11.1788 11.7767 11.1532C11.5816 11.129 11.3851 11.1168 11.1885 11.1167C10.4765 11.1167 9.81404 11.2146 9.20119 11.4103C8.61475 11.5696 8.05619 11.8179 7.54494 12.1463C7.06991 12.4284 6.63649 12.7753 6.25717 13.1769C5.91364 13.5697 5.64367 13.9747 5.44728 14.3918H5.37435C5.37435 13.9005 5.36187 13.4219 5.33692 12.9562C5.31264 12.4906 5.30048 12.0244 5.30046 11.5581H2.57715C2.57715 12.1223 2.60178 12.748 2.65104 13.4351" fill="black"/>
<path fill-rule="evenodd" clip-rule="evenodd" d="M26.7907 28.4488C28.0177 27.9095 29.1465 26.9774 30.1771 25.6525L28.0056 23.9589C27.3185 24.818 26.5457 25.4683 25.6872 25.9097C24.8287 26.3511 23.7738 26.5718 22.5225 26.5718C21.7755 26.58 21.0354 26.4296 20.3509 26.1304C19.7064 25.8488 19.12 25.4495 18.6218 24.953C18.1262 24.4322 17.7162 23.8363 17.4069 23.1874C17.1157 22.5099 16.9415 21.788 16.8916 21.0523H30.8028V20.132C30.8028 18.7086 30.6064 17.4452 30.2136 16.3417C29.8208 15.2132 29.2565 14.2686 28.5209 13.508C27.8127 12.7252 26.93 12.1203 25.9444 11.7424C24.9387 11.3253 23.8349 11.1167 22.6328 11.1167C21.3566 11.1167 20.1788 11.3374 19.0996 11.7788C18.0471 12.2031 17.0947 12.8424 16.3034 13.6558C15.5184 14.4407 14.9049 15.3971 14.4629 16.5249C14.0215 17.6297 13.8008 18.8443 13.8008 20.1685C13.8008 21.4198 13.9972 22.5975 14.39 23.7017C14.8064 24.8059 15.3828 25.7626 16.1191 26.5718C16.9016 27.3975 17.8395 28.0605 18.8789 28.5227C19.9581 28.9884 21.1727 29.2213 22.5225 29.2213C24.141 29.2213 25.5637 28.9638 26.7907 28.4488ZM26.2754 15.0913C27.1838 15.9741 27.6624 17.1512 27.711 18.6226H16.8916C17.088 17.1512 17.6769 15.9741 18.6582 15.0913C19.6396 14.2085 20.9276 13.7668 22.5225 13.7661C24.1167 13.7661 25.368 14.2075 26.2764 15.0904" fill="black"/>
<path d="M37.2298 25.9472C36.5677 25.5301 35.9542 24.9655 35.3893 24.2535L33.1084 26.0201C33.9669 27.2464 34.9233 28.0928 35.9776 28.5592C37.0574 29.0006 38.3337 29.2213 39.8063 29.2213C40.6642 29.2213 41.4981 29.1234 42.308 28.9276C43.1422 28.7312 43.8782 28.4242 44.516 28.0064C45.1688 27.5744 45.7109 26.9949 46.0983 26.3147C46.4911 25.6276 46.6875 24.7934 46.6875 23.8121C46.6875 22.9536 46.5404 22.2297 46.2461 21.6405C45.9606 21.0624 45.5447 20.5585 45.0313 20.1685C44.4869 19.7613 43.8767 19.4503 43.2273 19.2492C42.5408 19.0036 41.8173 18.8072 41.0567 18.66C40.4992 18.5633 39.9465 18.4407 39.4004 18.2925C38.9212 18.1588 38.4537 17.9865 38.0023 17.7772C37.65 17.6091 37.327 17.3856 37.0456 17.1151C36.8251 16.8453 36.7077 16.5058 36.7145 16.1574C36.7145 15.7646 36.8127 15.4214 37.0091 15.1278C37.2298 14.8086 37.4995 14.5508 37.8181 14.3544C38.1494 14.1543 38.5092 14.0054 38.8851 13.913C39.283 13.8171 39.6907 13.7678 40.1 13.7661C40.9585 13.7661 41.6823 13.9622 42.2715 14.3544C42.8844 14.7228 43.375 15.2135 43.7435 15.8264L46.1348 14.244C45.5463 13.1405 44.7242 12.3434 43.6687 11.8527C42.6387 11.3614 41.5105 11.1158 40.2842 11.1158C39.4743 11.1158 38.689 11.2264 37.9284 11.4478C37.1953 11.6556 36.4999 11.9785 35.8682 12.4045C35.2547 12.8209 34.764 13.3484 34.3962 13.9868C34.0277 14.624 33.8438 15.3597 33.8444 16.1939C33.8444 17.0774 34.0037 17.8012 34.3223 18.3654C34.6578 18.9217 35.1095 19.399 35.6465 19.7645C36.2581 20.1286 36.9136 20.4131 37.5973 20.6109C38.3337 20.8316 39.1065 21.0277 39.9157 21.1991C40.3821 21.2983 40.8363 21.4086 41.2783 21.5302C41.7197 21.653 42.1119 21.8248 42.4548 22.0455C42.7983 22.2419 43.0683 22.4872 43.2647 22.7815C43.4854 23.0757 43.5957 23.4564 43.5957 23.9234C43.5957 24.3891 43.4854 24.7937 43.2647 25.1373C43.044 25.4558 42.7497 25.7255 42.3819 25.9462C42.014 26.1669 41.5969 26.3265 41.1306 26.425C40.6891 26.5229 40.2477 26.5718 39.8063 26.5718C38.7751 26.5718 37.9163 26.3633 37.2298 25.9462M75.2266 0.959473H72.3556V28.7799H75.2266V0.959473ZM85.3916 28.7799H88.5563L95.3646 11.5581H92.2737L87.1582 25.0634H87.0843L81.7115 11.5581H78.3626L85.3916 28.7799ZM98.1771 13.4341C98.2257 14.1212 98.25 14.8575 98.25 15.6431V28.7799H101.121V20.3892C101.121 18.4029 101.514 16.8451 102.299 15.716C103.108 14.5632 104.397 13.9868 106.163 13.9868C106.702 13.9868 107.217 14.0604 107.708 14.2075L107.892 11.3C107.702 11.2281 107.504 11.1789 107.303 11.1532C107.108 11.129 106.911 11.1168 106.715 11.1167C106.003 11.1167 105.34 11.2146 104.727 11.4103C104.141 11.5697 103.582 11.8179 103.071 12.1464C102.596 12.4284 102.163 12.7753 101.783 13.177C101.44 13.5697 101.17 13.9747 100.973 14.3918H100.9C100.9 13.9005 100.888 13.422 100.863 12.9562C100.839 12.4906 100.827 12.0244 100.827 11.5581H98.1032C98.1032 12.1224 98.1279 12.748 98.1771 13.4351" fill="black"/>
</mask>
<g mask="url(#mask0_5_2)">
<path d="M2.72399 28.7799H2.53207V28.9718H2.72399V28.7799ZM5.59508 28.7799V28.9718H5.78699V28.7799H5.59508ZM12.1817 14.2076L12.127 14.3909L12.3573 14.4609L12.3736 14.2191L12.1817 14.2076ZM12.3659 11.3L12.5578 11.3125L12.5665 11.1705L12.4331 11.1206L12.3659 11.3ZM9.20121 11.4104L9.25303 11.5956L9.25974 11.5937L9.20121 11.4104ZM7.54496 12.1464L7.6438 12.3114L7.64955 12.3076L7.54496 12.1464ZM6.25719 13.177L6.11709 13.0455L6.11229 13.0503L6.25719 13.177ZM5.4473 14.3918V14.5837H5.56917L5.62099 14.4734L5.4473 14.3918ZM5.37437 14.3918H5.18245V14.5837H5.37437V14.3918ZM5.30048 11.5581H5.4924V11.3662H5.30048V11.5581ZM2.57717 11.5581V11.3662H2.38525V11.5581H2.57717ZM30.1768 25.6526L30.3275 25.7696L30.4455 25.619L30.2939 25.501L30.1768 25.6526ZM26.7905 28.4488L26.8653 28.6254H26.8682L26.7905 28.4488ZM28.0053 23.9589L28.1233 23.8083L27.9736 23.6912L27.8556 23.839L28.0053 23.9589ZM18.6215 24.953L18.4823 25.0855L18.4852 25.0883L18.6215 24.953ZM17.4066 23.1874L17.2301 23.2622L17.2339 23.2699L17.4066 23.1874ZM16.8913 21.0523V20.8604H16.687L16.7004 21.0648L16.8913 21.0523ZM30.8025 21.0523V21.2442H30.9944V21.0523H30.8025ZM28.5206 13.508L28.3776 13.6376L28.3824 13.6414L28.5206 13.508ZM25.9441 11.7424L25.8712 11.919L25.875 11.9209L25.9441 11.7424ZM16.3031 13.6558L16.4384 13.7911L16.4403 13.7892L16.3031 13.6558ZM14.3897 23.7017L14.2083 23.766L14.2103 23.7699L14.3897 23.7017ZM16.1189 26.5719L15.9769 26.7014L15.9788 26.7033L16.1189 26.5719ZM18.8787 28.5227L18.8 28.6974L18.8029 28.6983L18.8787 28.5227ZM27.7107 18.6236V18.8155H27.9093L27.9026 18.6169L27.7107 18.6236ZM16.8913 18.6236L16.7014 18.5977L16.6726 18.8155H16.8913V18.6236ZM35.3893 24.2545L35.54 24.1345L35.422 23.9858L35.2723 24.1019L35.3893 24.2545ZM37.2298 25.9462L37.1271 26.1093L37.13 26.1103L37.2298 25.9462ZM33.1084 26.0201L32.9904 25.8685L32.8464 25.9808L32.951 26.1305L33.1084 26.0201ZM35.9776 28.5592L35.9008 28.7348L35.9056 28.7367L35.9776 28.5592ZM42.308 28.9277L42.2638 28.7405H42.2629L42.308 28.9277ZM43.2272 19.2492L43.163 19.4296L43.1687 19.4316L43.2272 19.2492ZM41.0567 18.6601L41.0931 18.472H41.0893L41.0567 18.6601ZM39.4004 18.2925L39.3476 18.4768H39.3505L39.4004 18.2925ZM38.0023 17.7772L37.9159 17.949L37.9207 17.9509L38.0023 17.7772ZM37.0456 17.1151L36.8968 17.236L36.9036 17.2437L36.9103 17.2504L37.0456 17.1151ZM37.0091 15.1278L36.8508 15.0184L36.8489 15.0213L37.0091 15.1278ZM38.8851 13.913L38.8419 13.7259L38.8391 13.7268L38.8851 13.913ZM42.2715 14.3544L42.165 14.5146L42.1727 14.5194L42.2715 14.3544ZM43.7435 15.8264L43.5785 15.9252L43.6821 16.098L43.8491 15.9866L43.7435 15.8264ZM46.1348 14.244L46.2404 14.4043L46.3862 14.3083L46.3046 14.1548L46.1348 14.244ZM43.6687 11.8527L43.5871 12.0255H43.589L43.6687 11.8527ZM34.3223 18.3655L34.1553 18.4605L34.1582 18.4653L34.3223 18.3655ZM35.6465 19.7645L35.539 19.9229L35.5477 19.9277L35.6465 19.7645ZM42.4548 22.0455L42.3511 22.2077L42.3607 22.2125L42.4548 22.0455ZM43.2647 22.7815L43.1044 22.888L43.1111 22.8976L43.2647 22.7815ZM43.2647 25.1373L43.423 25.2457L43.4259 25.2409L43.2647 25.1373ZM41.1305 26.425L41.0912 26.237H41.0883L41.1305 26.425ZM72.3555 0.959496V0.767578H72.1636V0.959496H72.3555ZM75.2266 0.959496H75.4185V0.767578H75.2266V0.959496ZM72.3555 28.7799H72.1636V28.9718H72.3555V28.7799ZM75.2266 28.7799V28.9718H75.4185V28.7799H75.2266ZM88.5563 28.7799V28.9718H88.6868L88.7348 28.8509L88.5563 28.7799ZM85.3916 28.7799L85.214 28.8528L85.262 28.9718H85.3916V28.7799ZM95.3646 11.5581L95.543 11.6282L95.6467 11.3662H95.3646V11.5581ZM92.2737 11.5581V11.3662H92.1403L92.0943 11.49L92.2737 11.5581ZM87.1582 25.0634V25.2553H87.2906L87.3386 25.1306L87.1582 25.0634ZM87.0843 25.0634L86.9058 25.1344L86.9538 25.2553H87.0843V25.0634ZM81.7115 11.5581L81.89 11.4871L81.842 11.3662H81.7115V11.5581ZM78.3626 11.5581V11.3662H78.0776L78.185 11.6301L78.3626 11.5581ZM98.251 28.7789H98.0591V28.9708H98.251V28.7789ZM101.122 28.7789V28.9708H101.314V28.7789H101.122ZM107.709 14.2066L107.654 14.3899L107.885 14.4599L107.901 14.2181L107.709 14.2066ZM107.893 11.2991L108.085 11.3115L108.093 11.1695L107.96 11.1196L107.893 11.2991ZM104.728 11.4094L104.78 11.5946L104.787 11.5927L104.728 11.4094ZM103.072 12.1454L103.171 12.3105L103.177 12.3066L103.072 12.1454ZM101.784 13.176L101.644 13.0445L101.639 13.0493L101.784 13.176ZM100.974 14.3909V14.5828H101.096L101.148 14.4724L100.974 14.3909ZM100.901 14.3909H100.709V14.5828H100.901V14.3909ZM100.827 11.5572H101.019V11.3653H100.827V11.5572ZM98.1042 11.5572V11.3653H97.9123V11.5572H98.1042ZM2.72399 15.6431H2.91591C2.91591 14.8531 2.89224 14.1123 2.84298 13.4207L2.6501 13.4341L2.45914 13.4485C2.50776 14.1298 2.53207 14.8614 2.53207 15.6431H2.72399ZM2.72399 28.7799H2.91591V15.6431H2.53207V28.7799H2.72399ZM5.59508 28.7799V28.588H2.72399V28.9718H5.59508V28.7799ZM5.59508 20.3892H5.40316V28.7799H5.78699V20.3892H5.59508ZM6.77249 15.716L6.61512 15.6057C5.79947 16.7773 5.40316 18.3799 5.40316 20.3902H5.78699C5.78699 18.425 6.17563 16.9107 6.92986 15.8254L6.77249 15.716ZM10.6368 13.9869V13.7949C8.82505 13.7949 7.46915 14.3889 6.61512 15.6057L6.77249 15.716L6.92986 15.8254C7.6937 14.7363 8.91429 14.1788 10.6368 14.1788V13.9869ZM12.1817 14.2076L12.2373 14.0233C11.7178 13.8697 11.1786 13.7928 10.6368 13.7949V14.1788C11.1588 14.1788 11.6555 14.2495 12.127 14.3909L12.1817 14.2076ZM12.3659 11.3L12.174 11.2885L11.9907 14.1961L12.1826 14.2076L12.3736 14.22L12.5578 11.3125L12.3659 11.3ZM11.7767 11.1532L11.7537 11.3432C11.9341 11.3656 12.1158 11.4113 12.2988 11.4804L12.3659 11.3L12.4331 11.1206C12.229 11.044 12.0168 10.9909 11.8007 10.9622L11.7767 11.1532ZM11.1885 11.1167V11.3087C11.3766 11.3087 11.565 11.3202 11.7537 11.3432L11.7767 11.1532L11.8007 10.9622C11.5977 10.9364 11.3932 10.9236 11.1885 10.9239V11.1167ZM9.20121 11.4104L9.25878 11.5927C9.88319 11.399 10.5338 11.3032 11.1876 11.3087V10.9248C10.4583 10.9242 9.77664 11.0253 9.14267 11.228L9.20121 11.4104ZM7.54496 12.1464L7.65051 12.3076C8.1452 11.9898 8.68563 11.7497 9.25303 11.5956L9.20121 11.4104L9.14939 11.2261C8.54459 11.3908 7.96856 11.6471 7.44132 11.9861L7.54496 12.1464ZM6.25719 13.177L6.39729 13.3084C6.75234 12.9297 7.16816 12.5971 7.64476 12.3105L7.54496 12.1473L7.44612 11.9823C6.95591 12.2733 6.50861 12.6311 6.11709 13.0455L6.25719 13.177ZM5.4473 14.3918L5.62099 14.4734C5.82554 14.0489 6.0881 13.6549 6.40113 13.3027L6.25719 13.177L6.11229 13.0503C5.77543 13.429 5.49381 13.8527 5.27361 14.3093L5.4473 14.3918ZM5.37437 14.3918V14.5837H5.4473V14.1999H5.37437V14.3918ZM5.33695 12.9563L5.14503 12.9659C5.16998 13.4284 5.18245 13.9037 5.18245 14.3918H5.56629C5.56629 13.8979 5.55349 13.4159 5.52791 12.9457L5.33695 12.9563ZM5.30048 11.5581H5.10857C5.10857 12.0277 5.12072 12.4969 5.14503 12.9659L5.33695 12.9563L5.52887 12.9467C5.50475 12.4842 5.49259 12.0212 5.4924 11.5581H5.30048ZM2.57717 11.5581V11.7501H5.30048V11.3662H2.57717V11.5581ZM2.65106 13.4341L2.84298 13.4197C2.79372 12.7372 2.76909 12.1166 2.76909 11.5581H2.38525C2.38525 12.1275 2.40988 12.7576 2.45914 13.4485L2.65106 13.4341ZM30.1768 25.6526L30.0252 25.5336C29.009 26.8386 27.9045 27.7483 26.7137 28.2723L26.7905 28.4488L26.8672 28.6235C28.13 28.0679 29.2825 27.114 30.3275 25.7696L30.1768 25.6526ZM28.0053 23.9579L27.8873 24.1096L30.0588 25.8023L30.1768 25.6526L30.2939 25.5L28.1233 23.8073L28.0053 23.9579ZM25.6869 25.9097L25.7743 26.0796C26.6603 25.6228 27.4539 24.9556 28.155 24.0779L28.0053 23.9579L27.8556 23.838C27.1833 24.678 26.4309 25.3122 25.5987 25.7389L25.6869 25.9097ZM22.5222 26.5709V26.7628C23.7946 26.7628 24.8818 26.5383 25.7743 26.0796L25.686 25.9088L25.5977 25.738C24.7734 26.1621 23.7505 26.379 22.5213 26.379L22.5222 26.5709ZM20.3507 26.1295L20.2729 26.3061C20.9626 26.6118 21.7123 26.7635 22.5222 26.7628L22.5213 26.379C21.8011 26.3871 21.0884 26.2422 20.4284 25.9539L20.3507 26.1295ZM18.6215 24.953L18.4852 25.0874C18.9938 25.596 19.5897 26.0028 20.2729 26.3061L20.3507 26.1295L20.4284 25.9539C19.8054 25.682 19.2385 25.2964 18.7568 24.8168L18.6215 24.953ZM17.4066 23.1874L17.2339 23.2699C17.5517 23.9372 17.973 24.5499 18.4823 25.0855L18.6215 24.953L18.7606 24.8197C18.2802 24.312 17.882 23.7325 17.5803 23.102L17.4066 23.1874ZM16.8913 21.0523L16.6994 21.0638C16.7506 21.8219 16.9275 22.5544 17.2301 23.2613L17.4066 23.1855L17.5832 23.1097C17.3008 22.4526 17.1318 21.7524 17.0833 21.0389L16.8913 21.0523ZM30.8025 21.0523V20.8594L16.8913 20.8604V21.2433L30.8025 21.2442V21.0523ZM30.8025 20.1311H30.6106V21.0514L30.9944 21.0523V20.1311H30.8025ZM30.2133 16.3407L30.032 16.405C30.4164 17.4836 30.609 18.7256 30.6096 20.1311H30.9944C30.9957 18.6917 30.7948 17.4068 30.3937 16.2764L30.2133 16.3407ZM28.5206 13.508L28.3824 13.6414C29.097 14.3777 29.6468 15.2986 30.032 16.4041L30.2133 16.3407L30.3947 16.2774C29.9942 15.1253 29.4153 14.1574 28.6578 13.3737L28.5206 13.508ZM25.9441 11.7414L25.875 11.9199C26.8328 12.2871 27.6905 12.8749 28.3786 13.6357L28.5206 13.508L28.6626 13.3785C27.9347 12.5734 27.0274 11.951 26.0142 11.562L25.9441 11.7414ZM22.6326 11.1158V11.3077C23.8122 11.3077 24.8918 11.5121 25.8712 11.919L25.9441 11.7405L26.018 11.5639C24.9861 11.1366 23.8576 10.9229 22.6326 10.9229V11.1158ZM19.0994 11.7789L19.1723 11.9554C20.2266 11.523 21.38 11.3067 22.6326 11.3067V10.9229C21.3339 10.9229 20.1322 11.1487 19.0274 11.6004L19.0994 11.7789ZM16.3031 13.6548L16.4403 13.7892C17.2135 12.9948 18.144 12.3696 19.1723 11.9554L19.0994 11.7789L19.0274 11.6004C17.9501 12.0343 16.9751 12.6883 16.1649 13.5205L16.3031 13.6548ZM14.4626 16.524L14.6421 16.595C15.0745 15.4896 15.6733 14.5556 16.4384 13.7911L16.3031 13.6548L16.1669 13.5186C15.3614 14.3246 14.7339 15.3034 14.2841 16.4549L14.4626 16.524ZM13.8005 20.1676H13.9924C13.9924 18.8651 14.2087 17.6755 14.6411 16.5969L14.4626 16.525L14.2851 16.454C13.8335 17.5831 13.608 18.821 13.6086 20.1676H13.8005ZM14.3897 23.7008L14.5701 23.6365C14.1795 22.522 13.9841 21.3485 13.9924 20.1676H13.6086C13.6086 21.4406 13.8085 22.6408 14.2083 23.766L14.3897 23.7008ZM16.1189 26.5719L16.2609 26.4423C15.5418 25.6523 14.9779 24.7157 14.5691 23.6326L14.3897 23.7008L14.2103 23.7679C14.6344 24.8939 15.2233 25.8723 15.9769 26.7014L16.1189 26.5719ZM18.8787 28.5217L18.9583 28.3471C17.9002 27.8654 17.0004 27.2295 16.259 26.4394L16.1189 26.5719L15.9788 26.7033C16.758 27.5324 17.6984 28.1971 18.8 28.6974L18.8787 28.5217ZM22.5222 29.2203V29.0284C21.1961 29.0284 20.0068 28.8007 18.9545 28.3452L18.8787 28.5217L18.8019 28.6974C19.9099 29.1746 21.15 29.4129 22.5222 29.4122V29.2203ZM26.7905 28.4488L26.7166 28.2713C25.5177 28.7754 24.1196 29.0281 22.5222 29.0294V29.4132C24.1618 29.4145 25.6095 29.1525 26.8653 28.6254L26.7905 28.4488ZM27.7117 18.6217L27.9026 18.6169C27.8518 17.1046 27.3585 15.8753 26.4095 14.9522L26.2752 15.0894L26.1418 15.2286C27.0083 16.0711 27.4718 17.1976 27.5188 18.6284L27.7117 18.6217ZM16.8913 18.6217V18.8136H27.7107V18.4298H16.8913V18.6217ZM18.658 15.0904L18.5294 14.9465C17.5103 15.8648 16.9029 17.0863 16.7014 18.5967L16.8913 18.6217L17.0823 18.6476C17.2733 17.2149 17.8433 16.0807 18.7865 15.2315L18.658 15.0904ZM22.5222 13.7652V13.5733C20.8909 13.5733 19.5532 14.0252 18.5303 14.9474L18.658 15.0904L18.7865 15.2315C19.726 14.387 20.9648 13.9562 22.5222 13.9562V13.7652ZM26.2761 15.0904L26.4095 14.9522C25.4576 14.0252 24.1535 13.5733 22.5222 13.5733V13.9571C24.0806 13.9571 25.2782 14.388 26.1418 15.2286L26.2761 15.0904ZM35.3893 24.2545L35.2396 24.3715C35.8154 25.0983 36.4446 25.6782 37.1271 26.1093L37.2298 25.9462L37.3315 25.7831C36.6905 25.3801 36.0934 24.8312 35.54 24.1345L35.3893 24.2545ZM33.1084 26.0201L33.2255 26.1708L35.5074 24.4051L35.3893 24.2525L35.2723 24.1009L32.9904 25.8666L33.1084 26.0201ZM35.9776 28.5592L36.0562 28.3826C35.041 27.9345 34.1092 27.116 33.2648 25.9088L33.1084 26.0201L32.951 26.1295C33.8242 27.377 34.8059 28.2511 35.9008 28.7348L35.9776 28.5592ZM39.8063 29.2203V29.0284C38.3529 29.0271 37.1012 28.8112 36.0514 28.3807L35.9785 28.5582L35.9056 28.7357C37.013 29.1896 38.3142 29.4122 39.8054 29.4122L39.8063 29.2203ZM42.308 28.9277L42.2629 28.7405C41.4683 28.9325 40.6495 29.0278 39.8063 29.0284L39.8054 29.4122C40.6786 29.4122 41.5285 29.3125 42.3531 29.1129L42.308 28.9277ZM44.516 28.0055L44.4104 27.8462C43.7944 28.2492 43.0788 28.5467 42.2638 28.7386L42.308 28.9277L42.3531 29.1129C43.2065 28.9126 43.9617 28.5972 44.6206 28.1667L44.516 28.0055ZM46.0983 26.3147L45.9314 26.2187C45.5589 26.8735 45.0385 27.4304 44.4104 27.8462L44.516 28.0065L44.6215 28.1657C45.2997 27.7172 45.8628 27.1153 46.2653 26.4087L46.0983 26.3147ZM46.6875 23.8111H46.4956C46.4956 24.7669 46.3037 25.5672 45.9314 26.2187L46.0983 26.3147L46.2653 26.4087C46.6779 25.6871 46.8794 24.8177 46.8794 23.8111H46.6875ZM46.2461 21.6396L46.0734 21.7259C46.3517 22.2815 46.4956 22.9734 46.4956 23.8111H46.8794C46.8794 22.9312 46.7288 22.176 46.4169 21.5542L46.2461 21.6396ZM45.0313 20.1685L44.9152 20.3211C45.4065 20.6947 45.7925 21.163 46.0734 21.7259L46.2461 21.6396L46.4169 21.5542C46.1185 20.9498 45.6839 20.4239 45.1474 20.016L45.0313 20.1685ZM43.2272 19.2492L43.1697 19.4306C43.798 19.6252 44.3884 19.9271 44.9152 20.3211L45.0303 20.1676L45.1474 20.016C44.5857 19.5953 43.956 19.273 43.2858 19.065L43.2272 19.2492ZM41.0567 18.6601L41.0202 18.8472C41.7719 18.993 42.4861 19.1878 43.163 19.4296L43.2282 19.2483L43.2925 19.0669C42.5756 18.8127 41.8403 18.6144 41.0931 18.472L41.0567 18.6601ZM39.4004 18.2925L39.3505 18.4768C39.8956 18.6258 40.4534 18.7496 41.024 18.8481L41.0567 18.6601L41.0893 18.4701C40.538 18.3737 39.9914 18.252 39.4513 18.1054L39.4004 18.2925ZM38.0023 17.7772L37.9207 17.949C38.3493 18.1505 38.825 18.3271 39.3476 18.4768L39.4004 18.2925L39.4532 18.1064C38.984 17.9753 38.5261 17.8068 38.0839 17.6026L38.0023 17.7772ZM37.0456 17.1142L36.9103 17.2485C37.2062 17.5341 37.546 17.7703 37.9169 17.948L38.0032 17.7753L38.0887 17.6045C37.7545 17.4456 37.448 17.234 37.1809 16.9779L37.0456 17.1142ZM36.7145 16.1565H36.5226C36.5226 16.5662 36.6474 16.9299 36.8968 17.236L37.0456 17.1142L37.1943 16.9923C37.0024 16.7582 36.9064 16.4837 36.9064 16.1575L36.7145 16.1565ZM37.0091 15.1269L36.8489 15.0203C36.629 15.3579 36.5153 15.7537 36.5226 16.1565L36.9064 16.1575C36.9064 15.7986 36.9957 15.4925 37.1684 15.2324L37.0091 15.1269ZM37.818 14.3544L37.7173 14.1913C37.3736 14.4032 37.0784 14.684 36.8508 15.0175L37.0091 15.1269L37.1665 15.2353C37.3725 14.9378 37.6233 14.6986 37.9188 14.5175L37.818 14.3544ZM38.8851 13.913L38.8391 13.7259C38.4434 13.8217 38.0649 13.9793 37.7173 14.1913L37.818 14.3544L37.9188 14.5175C38.2329 14.3264 38.5747 14.1843 38.9321 14.0982L38.8851 13.913ZM40.1 13.7652V13.5733C39.6912 13.5733 39.2718 13.6248 38.8419 13.7259L38.8851 13.913L38.9293 14.0991C39.3127 14.0066 39.7055 13.9589 40.1 13.9571V13.7652ZM42.2715 14.3544L42.3771 14.1941C41.7514 13.7767 40.9885 13.5733 40.1 13.5733V13.9571C40.929 13.9571 41.6132 14.1462 42.165 14.5137L42.2715 14.3544ZM43.7435 15.8264L43.9076 15.7266C43.5314 15.094 43.0029 14.5656 42.3703 14.1893L42.2715 14.3544L42.1727 14.5194C42.7513 14.8633 43.2346 15.3456 43.5785 15.9243L43.7435 15.8264ZM46.1348 14.244L46.0292 14.0828L43.637 15.6661L43.7425 15.8254L43.8491 15.9866L46.2413 14.4033L46.1348 14.244ZM43.6687 11.8518L43.589 12.0255C44.6023 12.4976 45.395 13.2633 45.9659 14.3333L46.1348 14.244L46.3046 14.1529C45.6972 13.0148 44.8461 12.1867 43.7502 11.6771L43.6687 11.8518ZM40.2842 11.1148V11.3067C41.4837 11.3067 42.5846 11.547 43.5871 12.0255L43.6696 11.8518L43.7521 11.6781C42.6934 11.1746 41.5374 10.9229 40.2842 10.9229V11.1148ZM37.9284 11.4468L37.9821 11.6311C38.7303 11.4149 39.5054 11.3057 40.2842 11.3067V10.9229C39.4564 10.9229 38.6535 11.0361 37.8756 11.2626L37.9284 11.4468ZM35.8682 12.4035L35.9756 12.5619C36.591 12.1473 37.2682 11.8331 37.9821 11.6311L37.9284 11.4468L37.8756 11.2626C37.1228 11.4757 36.4086 11.808 35.7597 12.2452L35.8682 12.4035ZM34.3962 13.9859L34.5622 14.0819C34.9115 13.4743 35.395 12.9544 35.9756 12.5619L35.8682 12.4035L35.7597 12.2452C35.1314 12.6704 34.6083 13.2332 34.2301 13.8909L34.3962 13.9859ZM33.8444 16.193H34.0363C34.037 15.3895 34.2122 14.6858 34.5622 14.0819L34.3962 13.9859L34.2301 13.8909C33.8425 14.5617 33.6525 15.3303 33.6525 16.193H33.8444ZM34.3223 18.3655L34.4892 18.2705C34.1918 17.7427 34.0363 17.0547 34.0363 16.193H33.6525C33.6525 17.0979 33.8156 17.8578 34.1553 18.4585L34.3223 18.3655ZM35.6465 19.7645L35.7549 19.6043C35.2405 19.2544 34.8078 18.7974 34.4864 18.2647L34.3232 18.3645L34.1582 18.4653C34.5084 19.045 34.9798 19.5412 35.54 19.9219L35.6465 19.7645ZM37.5973 20.6099L37.653 20.4257C36.9851 20.2326 36.3447 19.955 35.7473 19.5995L35.6475 19.7626L35.5477 19.9277C36.1735 20.2994 36.8438 20.5896 37.5426 20.7932L37.5973 20.6099ZM39.9157 21.1982L39.956 21.0111C39.1806 20.8477 38.4123 20.6524 37.653 20.4257L37.5973 20.6099L37.5426 20.7932C38.2835 21.0159 39.0614 21.2145 39.8764 21.3872L39.9157 21.1982ZM41.2783 21.5292L41.3292 21.345C40.8752 21.2187 40.4172 21.108 39.956 21.0111L39.9157 21.1982L39.8773 21.3863C40.3386 21.4829 40.7883 21.5922 41.2265 21.7144L41.2783 21.5292ZM42.4548 22.0445L42.5584 21.8833C42.1778 21.6436 41.7635 21.4621 41.3292 21.345L41.2774 21.5302L41.2265 21.7144C41.6513 21.8328 42.0262 21.9965 42.3511 22.2057L42.4548 22.0445ZM43.2647 22.7815L43.424 22.675C43.1995 22.3446 42.9003 22.0717 42.5507 21.8785L42.4548 22.0445L42.3598 22.2115C42.6796 22.3945 42.9282 22.6196 43.1054 22.887L43.2647 22.7815ZM43.5957 23.9224H43.7876C43.7876 23.4254 43.6696 23.0012 43.4182 22.6654L43.2647 22.7815L43.1111 22.8957C43.3011 23.149 43.4038 23.4858 43.4038 23.9224H43.5957ZM43.2647 25.1373L43.4259 25.24C43.6696 24.8609 43.7876 24.4205 43.7876 23.9224H43.4038C43.4038 24.3571 43.3011 24.7237 43.1035 25.0317L43.2647 25.1373ZM42.3819 25.9462L42.4807 26.1103C42.8703 25.8774 43.1841 25.5892 43.422 25.2457L43.2647 25.1373L43.1073 25.0269C42.8904 25.3354 42.6087 25.5928 42.2821 25.7812L42.3819 25.9462ZM41.1305 26.425L41.1699 26.6122C41.6548 26.5098 42.0917 26.3425 42.4807 26.1103L42.3819 25.9462L42.283 25.7821C41.9139 25.9992 41.5111 26.1529 41.0912 26.237L41.1305 26.425ZM39.8063 26.5709V26.7628C40.2618 26.7628 40.717 26.7123 41.1718 26.6112L41.1305 26.425L41.0883 26.237C40.6597 26.3316 40.2321 26.379 39.8054 26.379L39.8063 26.5709ZM37.2298 25.9462L37.13 26.1103C37.8545 26.5508 38.7508 26.7628 39.8063 26.7628L39.8054 26.379C38.8007 26.379 37.9783 26.1756 37.3296 25.7812L37.2298 25.9462ZM72.3555 0.959496L72.3565 1.15141H75.2257L75.2266 0.767578H72.3555V0.959496ZM72.3555 28.7799H72.5484V0.959496H72.1636V28.7799H72.3555ZM75.2266 28.7799L75.2257 28.588H72.3565L72.3555 28.9718H75.2266V28.7799ZM75.2266 0.959496H75.0338V28.7799H75.4185V0.959496H75.2266ZM88.5563 28.7799V28.588H85.3916V28.9718H88.5563V28.7799ZM95.3646 11.5581L95.1861 11.4871L88.3778 28.7098L88.5563 28.7799L88.7348 28.8509L95.543 11.6282L95.3646 11.5581ZM92.2737 11.5581V11.7501H95.3646V11.3662H92.2737V11.5581ZM87.1582 25.0634L87.3386 25.1306L92.4522 11.6263L92.2737 11.5581L92.0943 11.49L86.9787 24.9953L87.1582 25.0634ZM87.0843 25.0634V25.2553H87.1582V24.8715H87.0843V25.0634ZM81.7115 11.5581L81.533 11.6292L86.9058 25.1344L87.0843 25.0634L87.2627 24.9924L81.89 11.4871L81.7115 11.5581ZM78.3626 11.5581V11.7501H81.7115V11.3662H78.3626V11.5581ZM85.3916 28.7799L85.5691 28.7079L78.5411 11.4852L78.3626 11.5581L78.185 11.6301L85.214 28.8528L85.3916 28.7799ZM98.25 15.6431H98.442C98.442 14.8531 98.4173 14.1123 98.3681 13.4207L98.1781 13.4341L97.9852 13.4485C98.0338 14.1298 98.0581 14.8614 98.0581 15.6431H98.25ZM98.25 28.7799H98.442V15.6431H98.0581V28.7799H98.25ZM101.121 28.7799V28.588H98.25V28.9718H101.121V28.7799ZM101.121 20.3892H100.929V28.7799H101.313V20.3892H101.121ZM102.299 15.716L102.141 15.6067C101.326 16.7783 100.929 18.3799 100.929 20.3902H101.313C101.313 18.425 101.702 16.9107 102.456 15.8254L102.299 15.716ZM106.163 13.9869V13.7949C104.351 13.7949 102.996 14.3899 102.141 15.6067L102.299 15.716L102.456 15.8254C103.22 14.7363 104.44 14.1788 106.163 14.1788V13.9869ZM107.708 14.2076L107.763 14.0233C107.244 13.8697 106.705 13.7928 106.163 13.7949V14.1788C106.685 14.1788 107.182 14.2495 107.653 14.3909L107.708 14.2076ZM107.892 11.3L107.7 11.2885L107.517 14.1961L107.708 14.2076L107.9 14.22L108.084 11.3125L107.892 11.3ZM107.303 11.1532L107.28 11.3432C107.46 11.3656 107.642 11.4113 107.825 11.4804L107.892 11.3L107.959 11.1206C107.755 11.044 107.543 10.9909 107.327 10.9622L107.303 11.1532ZM106.715 11.1167V11.3087C106.903 11.3087 107.091 11.3202 107.28 11.3432L107.303 11.1532L107.327 10.9622C107.124 10.9364 106.919 10.9236 106.715 10.9239V11.1167ZM104.727 11.4104L104.787 11.5927C105.411 11.399 106.061 11.3032 106.715 11.3087V10.9248C106.021 10.9197 105.331 11.022 104.669 11.228L104.727 11.4104ZM103.071 12.1464L103.176 12.3076C103.671 11.9897 104.211 11.7496 104.779 11.5956L104.727 11.4104L104.675 11.2261C104.07 11.3907 103.494 11.647 102.966 11.9861L103.071 12.1464ZM101.783 13.177L101.923 13.3084C102.278 12.9297 102.695 12.5971 103.171 12.3105L103.071 12.1473L102.972 11.9823C102.482 12.2733 102.035 12.6311 101.643 13.0455L101.783 13.177ZM100.973 14.3918L101.147 14.4734C101.352 14.0489 101.614 13.6549 101.927 13.3027L101.783 13.177L101.638 13.0503C101.285 13.4553 101.006 13.8749 100.8 14.3093L100.973 14.3918ZM100.9 14.3918V14.5837H100.973V14.1999H100.9V14.3918ZM100.863 12.9563L100.672 12.9659C100.696 13.4284 100.708 13.9037 100.708 14.3918H101.092C101.092 13.8979 101.08 13.4159 101.055 12.9457L100.863 12.9563ZM100.827 11.5581H100.635C100.635 12.0277 100.647 12.4969 100.672 12.9659L100.863 12.9563L101.055 12.9457C101.031 12.4833 101.019 12.0212 101.018 11.5581H100.827ZM98.1032 11.5581V11.7501H100.827V11.3662H98.1032V11.5581ZM98.1771 13.4351L98.3681 13.4207C98.3214 12.8009 98.2971 12.1797 98.2951 11.5581H97.9113C97.9113 12.1275 97.9359 12.7576 97.9852 13.4485L98.1771 13.4351Z" fill="white"/>
</g>
<path fill-rule="evenodd" clip-rule="evenodd" d="M55.0086 11.8892C56.0936 11.3832 57.2677 11.096 58.4638 11.0438C59.6598 10.9916 60.8545 11.1756 61.9794 11.5851C63.1044 11.9947 64.1377 12.6218 65.0203 13.4307C65.9029 14.2395 66.6175 15.2144 67.1234 16.2994L67.1282 16.309L64.7359 17.4241L64.7321 17.4145C64.3074 16.503 63.6764 15.703 62.8889 15.0777C62.1015 14.4524 61.1793 14.019 60.1954 13.8118C59.2114 13.6047 58.1928 13.6294 57.2201 13.8842C56.2473 14.1389 55.3473 14.6166 54.5912 15.2794L52.8524 13.2931C53.5011 12.7255 54.2271 12.2528 55.0086 11.8892ZM52.7718 17.9442L50.2922 17.0412C49.8826 18.165 49.6988 19.3587 49.7515 20.5537C49.8042 21.7487 50.0923 22.9215 50.5993 24.0049C51.2894 25.4855 52.3646 26.7535 53.7126 27.6762C55.0605 28.5989 56.6316 29.1425 58.2616 29.25L58.4362 26.6169C57.2777 26.5406 56.161 26.1543 55.203 25.4985C54.245 24.8426 53.4808 23.9414 52.9906 22.8889C52.6307 22.1196 52.4262 21.2868 52.3887 20.4383C52.3511 19.5899 52.4813 18.7423 52.7718 17.9442ZM61.5981 26.0229L62.7131 28.4142C63.493 28.0517 64.2176 27.5807 64.8655 27.0152L63.1267 25.0288C62.6776 25.4222 62.1652 25.7581 61.5981 26.0229ZM64.9451 22.3746L67.4257 23.2766C67.7193 22.4725 67.8997 21.6261 67.9582 20.7654L65.3251 20.5907C65.2826 21.2002 65.1547 21.8007 64.9451 22.3746Z" fill="white"/>
<mask id="mask1_5_2" style="mask-type:luminance" maskUnits="userSpaceOnUse" x="45" y="6" width="28" height="28">
<path d="M45.4712 6.76221H72.2504V33.5414H45.4712V6.76221Z" fill="white"/>
<path fill-rule="evenodd" clip-rule="evenodd" d="M55.0086 11.8892C56.0936 11.3832 57.2677 11.096 58.4638 11.0438C59.6598 10.9916 60.8545 11.1756 61.9794 11.5851C63.1044 11.9947 64.1377 12.6218 65.0203 13.4307C65.9029 14.2395 66.6175 15.2144 67.1234 16.2994L67.1282 16.309L64.7359 17.4241L64.7321 17.4145C64.3074 16.503 63.6764 15.703 62.8889 15.0777C62.1015 14.4524 61.1793 14.019 60.1954 13.8118C59.2114 13.6047 58.1928 13.6294 57.2201 13.8842C56.2473 14.1389 55.3473 14.6166 54.5912 15.2794L52.8524 13.2931C53.5011 12.7255 54.2271 12.2528 55.0086 11.8892ZM52.7718 17.9442L50.2922 17.0412C49.8826 18.165 49.6988 19.3587 49.7515 20.5537C49.8042 21.7487 50.0923 22.9215 50.5993 24.0049C51.2894 25.4855 52.3646 26.7535 53.7126 27.6762C55.0605 28.5989 56.6316 29.1425 58.2616 29.25L58.4362 26.6169C57.2777 26.5406 56.161 26.1543 55.203 25.4985C54.245 24.8426 53.4808 23.9414 52.9906 22.8889C52.6307 22.1196 52.4262 21.2868 52.3887 20.4383C52.3511 19.5899 52.4813 18.7423 52.7718 17.9442ZM61.5981 26.0229L62.7131 28.4142C63.493 28.0517 64.2176 27.5807 64.8655 27.0152L63.1267 25.0288C62.6776 25.4222 62.1652 25.7581 61.5981 26.0229ZM64.9451 22.3746L67.4257 23.2766C67.7193 22.4725 67.8997 21.6261 67.9582 20.7654L65.3251 20.5907C65.2826 21.2002 65.1547 21.8007 64.9451 22.3746Z" fill="black"/>
</mask>
<g mask="url(#mask1_5_2)">
<path d="M67.1281 16.3091L67.2087 16.4818L67.3823 16.4022L67.3017 16.2275L67.1281 16.3091ZM64.7358 17.4241L64.5621 17.5047L64.6427 17.6794L64.8174 17.5978L64.7358 17.4241ZM54.591 15.2794L54.4471 15.4051L54.5718 15.5491L54.7167 15.4243L54.591 15.2794ZM52.8523 13.2931L52.7256 13.1492L52.5817 13.2749L52.7074 13.4188L52.8523 13.2931ZM52.7717 17.9442L52.9521 18.0095L53.0173 17.8291L52.8369 17.7638L52.7717 17.9442ZM50.2921 17.0412L50.3573 16.8608L50.1769 16.7946L50.1117 16.975L50.2921 17.0412ZM58.2615 29.2501L58.248 29.442L58.4399 29.4545L58.4524 29.2626L58.2615 29.2501ZM58.4361 26.617L58.628 26.6294L58.6405 26.4375L58.4486 26.4251L58.4361 26.617ZM61.598 26.022L61.5173 25.8493L61.3427 25.9299L61.4243 26.1036L61.598 26.022ZM62.713 28.4143L62.5393 28.4958L62.6199 28.6695L62.7946 28.588L62.713 28.4143ZM64.8654 27.0152L64.9911 27.1591L65.135 27.0334L65.0102 26.8895L64.8654 27.0152ZM63.1266 25.0289L63.2705 24.9032L63.1438 24.7592L62.9999 24.884L63.1266 25.0289ZM64.945 22.3746L64.7656 22.3084L64.6984 22.4888L64.8797 22.555L64.945 22.3746ZM67.4255 23.2766L67.3593 23.458L67.5397 23.5233L67.605 23.3429L67.4255 23.2766ZM67.9581 20.7654L68.15 20.7788L68.1635 20.5869L67.9715 20.5735L67.9581 20.7654ZM65.325 20.5908L65.3375 20.3988L65.1465 20.3864L65.1331 20.5783L65.325 20.5908ZM67.1233 16.2995L67.2969 16.2179C65.1244 11.5591 59.5867 9.54302 54.9279 11.7155L55.0085 11.8892L55.0891 12.0639C56.1512 11.5684 57.3006 11.2871 58.4715 11.2358C59.6424 11.1846 60.812 11.3646 61.9133 11.7654C63.0147 12.1662 64.0263 12.78 64.8905 13.5718C65.7546 14.3636 66.4543 15.3179 66.9496 16.3801L67.1233 16.2995ZM67.1281 16.3091L67.3017 16.2275L67.2969 16.2179L67.1233 16.2995L66.9496 16.3801L66.9544 16.3897L67.1281 16.3091ZM64.7358 17.4241L64.8174 17.5978L67.2087 16.4818L67.1281 16.3091L67.0465 16.1344L64.6552 17.2504L64.7358 17.4241ZM64.7358 17.4241L64.9105 17.3435L64.9057 17.3339L64.732 17.4145L64.5573 17.4951L64.5621 17.5047L64.7358 17.4241ZM64.732 17.4145L64.9047 17.333C64.1571 15.7303 62.8035 14.4902 61.1416 13.8853C59.4798 13.2805 57.6458 13.3605 56.0429 14.1078L56.1235 14.2805L56.2041 14.4552C56.9522 14.1062 57.7617 13.9081 58.5863 13.872C59.411 13.836 60.2347 13.9627 61.0104 14.245C61.786 14.5273 62.4985 14.9596 63.1071 15.5173C63.7157 16.0749 64.2085 16.747 64.5573 17.4951L64.732 17.4145ZM56.1225 14.2815L56.0429 14.1078C55.4711 14.3742 54.9388 14.7199 54.4634 15.1345L54.5901 15.2785L54.7158 15.4234C55.1534 15.0415 55.6514 14.7133 56.2041 14.4552L56.1225 14.2815ZM52.8503 13.2931L52.7064 13.4198L54.4452 15.4061L54.5891 15.2794L54.734 15.1528L52.9952 13.1664L52.8503 13.2931ZM55.0085 11.8892L54.9259 11.7155C54.1281 12.0866 53.387 12.569 52.7246 13.1482L52.8513 13.2921L52.977 13.437C53.6123 12.8818 54.324 12.4195 55.0891 12.0639L55.0085 11.8892ZM52.7717 17.9442L52.8369 17.7638L50.3573 16.8608L50.2921 17.0412L50.2249 17.2216L52.7045 18.1237L52.7717 17.9442ZM50.2921 17.0412L50.1117 16.975C49.6933 18.1225 49.5046 19.3413 49.5583 20.5615C49.612 21.7817 49.906 22.9793 50.4235 24.0856L50.5972 24.005L50.7719 23.9234C50.2756 22.8628 49.9936 21.7147 49.9421 20.5449C49.8905 19.3751 50.0705 18.2066 50.4715 17.1065L50.2921 17.0412ZM50.5992 24.005L50.4235 24.0856C51.1281 25.5976 52.2261 26.8925 53.6026 27.8348C54.9791 28.7772 56.5835 29.3322 58.248 29.442L58.2615 29.2501L58.273 29.0582C56.6774 28.953 55.1394 28.421 53.8198 27.5178C52.5003 26.6147 51.4476 25.3727 50.7719 23.9234L50.5992 24.005ZM58.2615 29.2501L58.4524 29.2626L58.628 26.6294L58.4361 26.617L58.2432 26.6035L58.0686 29.2376L58.2615 29.2501ZM52.9895 22.889L52.8158 22.9705C53.3206 24.0541 54.1074 24.9821 55.0938 25.6573C56.0801 26.3326 57.2299 26.7303 58.4227 26.8089L58.4361 26.617L58.4486 26.4251C57.3244 26.351 56.2398 25.9762 55.3101 25.3397C54.3804 24.7033 53.6389 23.8287 53.1632 22.8074L52.9895 22.889ZM52.7717 17.9442L52.5903 17.878C52.2911 18.7 52.157 19.5729 52.1957 20.4467C52.2344 21.3206 52.4451 22.1782 52.8158 22.9705L52.9895 22.889L53.1632 22.8074C52.8139 22.0608 52.6154 21.2535 52.579 20.43C52.5426 19.6066 52.67 18.784 52.9521 18.0095L52.7717 17.9442ZM61.597 26.023L61.4243 26.1036L62.5393 28.4958L62.713 28.4143L62.8857 28.3337L61.7707 25.9414L61.597 26.023ZM62.713 28.4143L62.7946 28.588C63.6102 28.208 64.3443 27.7243 64.9911 27.1601L64.8654 27.0152L64.7377 26.8713C64.1037 27.4247 63.3955 27.8858 62.6324 28.2406L62.713 28.4143ZM64.8654 27.0152L65.0083 26.8885L63.2696 24.9022L63.1266 25.0289L62.9817 25.1555L64.7195 27.1419L64.8654 27.0152ZM61.598 26.022L61.6786 26.1957C62.2484 25.9304 62.7781 25.5864 63.2523 25.1738L63.1256 25.0298L62.999 24.8849C62.5633 25.2649 62.0682 25.5912 61.5164 25.8483L61.598 26.022ZM61.597 26.023L61.6776 26.1967L61.6786 26.1957L61.597 26.023ZM64.944 22.3746L64.8797 22.555L67.3584 23.4571L67.4246 23.2776L67.4898 23.0972L65.0102 22.1942L64.944 22.3746ZM67.4246 23.2776L67.604 23.3438C67.9058 22.5188 68.0903 21.6553 68.15 20.7788L67.9581 20.7654L67.7652 20.752C67.7085 21.5923 67.533 22.4203 67.2442 23.2114L67.4246 23.2776ZM67.9581 20.7654L67.9715 20.5735L65.3365 20.3998L65.324 20.5917L65.3116 20.7827L67.9447 20.9573L67.9581 20.7654ZM64.944 22.3746L65.1244 22.4399C65.3399 21.8493 65.4714 21.2314 65.515 20.6042L65.3231 20.5908L65.1321 20.5773C65.0912 21.1687 64.9685 21.7514 64.7656 22.3084L64.944 22.3746Z" fill="white"/>
</g>
<path d="M63.0547 22.6462H54.7446L58.8996 16.8887L63.0547 22.6462Z" fill="white"/>
</g>
<defs>
<clipPath id="clip0_5_2">
<rect width="109.75" height="32.626" fill="white"/>
</clipPath>
</defs>
</svg>
